<?xml version="1.0" standalone="no"?><!DOCTYPE svg PUBLIC "-//W3C//DTD SVG 1.1//EN" "http://www.w3.org/Graphics/SVG/1.1/DTD/svg11.dtd"><svg height="144" node-id="1" sillyvg="true" template-height="144" template-width="167" version="1.1" viewBox="0 0 167 144" width="167" xmlns="http://www.w3.org/2000/svg" xmlns:xlink="http://www.w3.org/1999/xlink"><defs node-id="76"></defs><g node-id="78"><path d="M 108.14 40.19 L 110.44 40.61 L 112.89 41.39 L 116.76 43.12 L 119.39 44.58 L 122.52 46.68 L 126.22 49.55 L 131.25 54.01 L 134.79 57.51 L 137.76 60.77 L 139.46 62.84 L 140.88 64.79 L 140.88 29.12 L 139.32 27.43 L 134.93 23.18 L 131.92 20.56 L 128.16 17.59 L 124.08 14.72 L 119.45 11.89 L 114.53 9.40 L 109.24 7.31 Z" fill="#e6e7e8" fill-rule="nonzero" group-id="1" id="路径_9012" node-id="2" stroke="none" target-height="57.48" target-width="32.740005" target-x="108.14" target-y="7.31"></path></g><g node-id="79"><path d="M 140.88 65.13 L 140.60 64.97 L 139.14 62.98 L 137.43 60.90 L 134.47 57.67 L 130.95 54.20 L 126.01 49.81 L 122.36 46.99 L 119.29 44.91 L 116.70 43.46 L 112.88 41.74 L 110.45 40.96 L 108.12 40.53 L 107.90 40.42 L 107.81 40.18 L 108.88 7.33 L 109.03 7.06 L 109.33 7.02 L 114.59 9.09 L 119.50 11.57 L 124.13 14.39 L 128.22 17.26 L 132.00 20.24 L 135.04 22.87 L 139.50 27.16 L 141.14 28.93 L 141.22 29.15 L 141.22 64.82 L 140.98 65.14 Z M 108.49 39.88 L 111.71 40.61 L 114.26 41.54 L 117.88 43.31 L 121.68 45.66 L 126.44 49.30 L 131.52 53.75 L 136.23 58.56 L 140.57 63.73 L 140.57 29.27 L 137.60 26.18 L 134.86 23.58 L 130.94 20.21 L 126.57 16.86 L 121.34 13.41 L 117.64 11.31 L 113.72 9.44 L 109.56 7.80 Z" fill="#231f20" fill-rule="nonzero" group-id="2" id="路径_9013" node-id="3" stroke="none" target-height="58.12" target-width="33.410004" target-x="107.81" target-y="7.02"></path></g><g node-id="80"><path d="M 30.88 52.64 L 30.88 20.89 L 37.11 18.96 L 43.43 17.45 L 49.83 16.37 L 56.30 15.71 L 62.78 15.49 L 69.31 15.71 L 69.31 46.17 L 66.74 46.28 L 60.08 46.77 L 50.85 47.85 L 45.78 48.67 L 40.60 49.73 L 35.52 51.06 L 30.88 52.64 Z" fill="#e6e7e8" fill-rule="nonzero" group-id="3" id="路径_9014" node-id="4" stroke="none" target-height="37.15" target-width="38.43" target-x="30.88" target-y="15.49"></path></g><g node-id="81"><path d="M 30.89 52.98 L 30.69 52.92 L 30.54 52.64 L 30.54 20.89 L 30.75 20.58 L 37.02 18.65 L 43.36 17.14 L 49.79 16.05 L 56.29 15.39 L 62.80 15.17 L 69.35 15.37 L 69.58 15.48 L 69.66 15.71 L 69.66 46.16 L 69.57 46.40 L 69.34 46.50 L 66.67 46.62 L 59.97 47.12 L 50.77 48.20 L 45.73 49.03 L 40.59 50.08 L 35.56 51.40 L 30.98 52.96 L 30.89 52.98 Z M 31.22 21.12 L 31.22 52.16 L 36.64 50.40 L 42.56 48.96 L 48.57 47.86 L 54.22 47.06 L 63.83 46.13 L 68.99 45.84 L 68.99 16.02 L 62.58 15.84 L 56.21 16.08 L 49.86 16.73 L 43.56 17.78 L 37.36 19.25 L 31.22 21.12 Z" fill="#231f20" fill-rule="nonzero" group-id="4" id="路径_9015" node-id="5" stroke="none" target-height="37.809998" target-width="39.120003" target-x="30.54" target-y="15.17"></path></g><g node-id="82"><path d="M 35.45 47.41 L 35.25 47.35 L 35.12 47.08 L 35.12 24.51 L 35.22 24.27 L 35.46 24.18 L 35.69 24.28 L 35.79 24.51 L 35.79 46.62 L 39.12 45.62 L 44.66 44.11 L 51.20 42.62 L 54.53 42.04 L 57.54 41.66 L 60.40 41.55 L 62.49 41.76 L 62.71 41.91 L 62.76 42.17 L 62.62 42.39 L 62.36 42.44 L 60.13 42.24 L 57.01 42.41 L 53.70 42.87 L 50.08 43.57 L 43.14 45.23 L 37.78 46.74 L 35.56 47.42 Z" fill="#231f20" fill-rule="nonzero" group-id="5" id="路径_9016" node-id="6" stroke="none" target-height="23.239998" target-width="27.64" target-x="35.12" target-y="24.18"></path></g><g node-id="83"><path d="M 16.14 70.30 L 12.46 72.45 L 9.19 75.03 L 6.29 78.04 L 3.83 81.42 L 1.86 85.09 L 0.37 89.09 L 0.37 61.01 L 0.58 58.75 L 1.08 56.43 L 2.25 53.12 L 3.31 50.92 L 4.85 48.51 L 6.92 45.88 L 9.26 43.52 L 12.29 41.15 L 16.14 38.76 Z" fill="#e6e7e8" fill-rule="nonzero" group-id="6" id="路径_9017" node-id="7" stroke="none" target-height="50.329998" target-width="15.7699995" target-x="0.37" target-y="38.76"></path></g><g node-id="84"><path d="M 0.34 89.42 L 0.29 89.42 L 0.00 89.09 L 0.00 61.01 L 0.25 58.64 L 0.79 56.28 L 1.99 52.92 L 3.09 50.69 L 4.64 48.26 L 6.73 45.61 L 9.08 43.23 L 12.12 40.85 L 15.95 38.46 L 16.28 38.46 L 16.44 38.75 L 16.44 70.29 L 16.23 70.60 L 12.61 72.75 L 9.38 75.30 L 6.52 78.28 L 4.09 81.62 L 2.14 85.25 L 0.66 89.19 L 0.34 89.42 Z M 15.77 39.33 L 12.14 41.65 L 9.27 43.96 L 7.03 46.25 L 5.06 48.80 L 3.58 51.13 L 2.55 53.27 L 1.40 56.49 L 0.90 58.74 L 0.66 61.00 L 0.66 87.06 L 2.25 83.48 L 4.23 80.18 L 6.61 77.15 L 9.35 74.43 L 12.39 72.08 L 15.76 70.08 Z M 16.11 70.29 Z" fill="#231f20" fill-rule="nonzero" group-id="7" id="路径_9018" node-id="8" stroke="none" target-height="50.96" target-width="16.44" target-x="0" target-y="38.46"></path></g><g node-id="85"><path d="M 0.34 61.01 L 0.94 62.98 L 1.73 64.95 L 3.09 67.62 L 4.85 70.28 L 7.26 73.02 L 9.14 74.63 L 11.35 76.05 L 13.95 77.26 L 13.95 110.12 L 12.00 108.59 L 10.11 106.88 L 7.63 104.29 L 5.26 101.30 L 3.01 97.65 L 1.79 95.02 L 0.90 92.17 L 0.34 89.09 Z" fill="#ffffff" fill-rule="nonzero" group-id="8" id="路径_9019" node-id="9" stroke="none" target-height="49.110004" target-width="13.61" target-x="0.34" target-y="61.01"></path></g><g node-id="86"><path d="M 13.95 110.45 L 13.76 110.39 L 11.74 108.79 L 9.81 107.05 L 7.32 104.42 L 4.94 101.40 L 2.68 97.72 L 1.46 95.07 L 0.57 92.21 L 0.01 89.12 L 0.01 61.01 L 0.09 60.77 L 0.31 60.65 L 0.55 60.72 L 0.68 60.93 L 1.30 62.93 L 2.09 64.88 L 3.44 67.51 L 5.18 70.13 L 7.56 72.80 L 9.40 74.39 L 11.56 75.77 L 14.08 76.95 L 14.29 77.26 L 14.29 110.12 L 14.11 110.42 L 13.95 110.45 Z M 0.66 63.19 L 0.66 89.09 L 1.12 91.74 L 1.84 94.21 L 2.82 96.54 L 4.65 99.81 L 6.66 102.62 L 8.83 105.13 L 10.74 107.02 L 13.60 109.45 L 13.60 77.50 L 11.06 76.27 L 8.88 74.85 L 7.02 73.24 L 4.61 70.51 L 2.85 67.85 L 1.47 65.19 L 0.66 63.19 Z" fill="#231f20" fill-rule="nonzero" group-id="9" id="路径_9020" node-id="10" stroke="none" target-height="49.799995" target-width="14.28" target-x="0.01" target-y="60.65"></path></g><g node-id="87"><path d="M 145.68 87.40 L 142.17 88.89 L 134.00 92.58 L 123.07 97.57 L 111.26 102.98 L 100.49 107.95 L 92.63 111.57 L 89.59 112.97 L 87.35 112.16 L 82.00 110.23 L 75.58 107.95 L 70.11 106.09 L 67.63 105.39 L 70.47 104.23 L 78.13 101.05 L 88.69 96.65 L 100.25 91.84 L 110.88 87.41 L 118.66 84.17 L 121.68 82.91 Z" fill="#ffffff" fill-rule="nonzero" group-id="10" id="路径_9021" node-id="11" stroke="none" target-height="30.059998" target-width="78.049995" target-x="67.63" target-y="82.91"></path></g><g node-id="88"><path d="M 89.59 113.30 L 89.47 113.30 L 82.69 110.85 L 75.79 108.40 L 70.28 106.51 L 67.67 105.74 L 67.67 105.70 L 67.42 105.70 L 67.32 105.55 L 67.32 105.30 L 67.48 105.11 L 67.52 105.11 L 70.72 103.79 L 78.46 100.58 L 88.93 96.22 L 100.29 91.49 L 110.73 87.14 L 118.42 83.93 L 121.54 82.63 L 121.74 82.63 L 145.74 87.12 L 146.02 87.45 L 145.75 87.78 L 142.48 89.18 L 134.87 92.61 L 124.35 97.40 L 112.36 102.91 L 100.34 108.45 L 89.73 113.36 L 89.59 113.30 Z M 68.72 105.31 L 71.92 106.32 L 78.47 108.59 L 89.59 112.60 L 95.11 110.05 L 104.69 105.64 L 116.36 100.27 L 128.19 94.86 L 138.22 90.30 L 144.49 87.51 L 121.72 83.25 L 94.80 94.47 L 76.23 102.20 L 70.10 104.75 Z" fill="#231f20" fill-rule="nonzero" group-id="11" id="路径_9022" node-id="12" stroke="none" target-height="30.730003" target-width="78.700005" target-x="67.32" target-y="82.63"></path></g><g node-id="89"><path d="M 89.59 109.84 L 89.49 109.84 L 74.91 105.38 L 74.67 105.08 L 74.87 104.75 L 116.11 87.47 L 116.34 87.46 L 116.53 87.61 L 120.82 95.18 L 120.82 95.45 L 120.64 95.65 L 89.68 109.85 L 89.59 109.84 Z M 75.99 105.00 L 89.57 109.15 L 120.06 95.16 L 116.10 88.14 Z" fill="#d1d3d4" fill-rule="nonzero" group-id="12" id="路径_9023" node-id="13" stroke="none" target-height="22.39" target-width="46.15" target-x="74.67" target-y="87.46"></path></g><g node-id="90"><path d="M 66.36 0.42 L 63.88 1.29 L 61.65 2.67 L 60.67 3.49 L 59.86 4.47 L 59.38 5.56 L 59.41 6.71 L 59.73 7.64 L 59.79 8.09 L 59.64 8.49 L 59.12 8.80 L 58.49 8.91 L 57.33 9.25 L 56.34 9.88 L 55.54 10.74 L 55.00 11.82 L 54.77 13.01 L 54.87 14.18 L 55.28 15.29 L 55.99 16.27 L 54.56 16.55 L 53.32 17.17 L 52.24 18.15 L 51.47 19.39 L 51.07 20.72 L 51.05 22.18 L 51.35 23.30 L 51.81 24.36 L 52.60 26.11 L 52.84 28.02 L 51.85 28.16 L 51.01 28.70 L 50.46 29.54 L 50.32 30.53 L 50.58 31.54 L 51.06 32.43 L 51.74 33.18 L 52.60 33.76 L 51.68 34.22 L 51.02 34.95 L 50.66 35.87 L 50.66 36.90 L 51.16 38.19 L 51.94 39.26 L 53.01 40.14 L 55.21 41.29 L 57.57 41.88 L 60.01 41.91 L 62.43 41.34 L 62.75 42.26 L 63.29 43.04 L 64.00 43.67 L 64.87 44.10 L 66.76 44.53 L 68.69 44.59 L 70.52 44.54 L 72.33 44.28 L 74.03 43.73 L 75.50 42.76 L 76.01 42.09 L 76.10 41.71 L 76.00 41.34 L 75.18 40.75 L 74.75 40.48 L 74.55 40.09 L 76.34 39.80 L 77.99 39.19 L 79.53 38.25 L 80.49 37.41 L 81.13 36.39 L 81.51 35.18 L 81.39 34.17 L 80.98 33.32 L 80.27 32.59 L 81.02 31.86 L 81.64 31.02 L 81.97 30.12 L 81.86 29.22 L 80.84 27.90 L 80.41 27.26 L 80.36 26.59 L 81.39 25.99 L 82.23 25.17 L 82.84 24.18 L 83.20 23.04 L 83.27 21.85 L 83.05 20.70 L 82.56 19.64 L 81.81 18.71 L 83.12 17.98 L 84.11 16.92 L 84.74 15.62 L 84.95 14.14 L 84.69 12.66 L 84.03 11.38 L 83.01 10.35 L 81.68 9.66 L 82.06 8.80 L 82.19 7.89 L 82.09 6.98 L 81.74 6.11 L 81.17 5.36 L 80.44 4.80 L 79.60 4.45 L 78.67 4.33 L 78.92 3.61 L 78.89 2.88 L 78.60 2.21 L 78.05 1.67 L 76.63 1.16 L 75.12 1.20 L 72.91 1.56 L 71.91 1.54 L 70.81 1.20 L 69.38 0.60 L 67.91 0.34 L 66.36 0.42 Z" fill="#ffffff" fill-rule="nonzero" group-id="13" id="路径_9024" node-id="14" stroke="none" target-height="44.25" target-width="34.629997" target-x="50.32" target-y="0.34"></path></g><g node-id="91"><path d="M 68.37 44.94 L 66.53 44.85 L 64.75 44.42 L 63.61 43.80 L 62.77 42.93 L 62.17 41.79 L 59.76 42.28 L 57.33 42.21 L 54.99 41.60 L 52.81 40.44 L 51.68 39.50 L 50.86 38.36 L 50.34 36.99 L 50.32 36.01 L 50.59 35.11 L 51.10 34.31 L 51.85 33.69 L 50.92 32.83 L 50.30 31.81 L 49.98 30.59 L 50.23 29.30 L 51.01 28.25 L 51.72 27.80 L 52.54 27.65 L 52.27 26.19 L 51.66 24.84 L 51.51 24.52 L 51.03 23.41 L 50.72 22.25 L 50.68 21.09 L 50.88 19.96 L 51.32 18.91 L 51.99 17.96 L 52.96 17.03 L 54.07 16.39 L 55.36 16.01 L 54.78 14.94 L 54.50 13.79 L 54.52 12.60 L 54.85 11.44 L 55.46 10.39 L 56.29 9.55 L 57.31 8.94 L 58.48 8.61 L 58.61 8.61 L 59.11 8.52 L 59.40 8.33 L 59.46 7.99 L 59.27 7.29 L 59.12 6.85 L 59.09 5.45 L 59.66 4.22 L 60.58 3.16 L 61.49 2.42 L 63.78 1.00 L 66.33 0.12 L 66.33 0.12 L 67.95 0.05 L 69.48 0.32 L 70.98 0.95 L 72.53 1.28 L 74.10 1.07 L 75.09 0.90 L 76.73 0.86 L 78.27 1.43 L 78.95 2.16 L 79.30 3.10 L 79.20 4.02 L 80.37 4.38 L 81.31 5.03 L 82.06 5.99 L 82.46 7.14 L 82.49 8.28 L 82.16 9.46 L 83.43 10.23 L 84.41 11.30 L 85.05 12.60 L 85.30 14.07 L 85.12 15.55 L 84.54 16.88 L 83.62 17.99 L 82.38 18.82 L 83.04 19.81 L 83.46 20.90 L 83.61 22.06 L 83.50 23.24 L 83.12 24.37 L 82.50 25.36 L 81.67 26.19 L 80.66 26.82 L 80.81 27.29 L 81.34 27.97 L 82.14 29.06 L 82.30 30.06 L 81.92 31.18 L 80.79 32.57 L 81.61 33.76 L 81.85 35.19 L 81.45 36.51 L 80.76 37.60 L 79.74 38.52 L 77.59 39.74 L 75.20 40.37 L 75.43 40.49 L 75.92 40.76 L 76.31 41.16 L 76.41 41.68 L 76.35 42.18 L 76.12 42.63 L 75.74 43.00 L 74.24 43.99 L 72.50 44.57 L 70.64 44.84 L 68.70 44.92 Z M 62.42 41.03 L 62.76 41.32 L 63.05 42.15 L 63.54 42.86 L 64.19 43.43 L 64.99 43.82 L 66.81 44.22 L 68.68 44.29 L 70.51 44.22 L 72.27 43.98 L 73.89 43.44 L 75.28 42.54 L 75.67 42.03 L 75.71 41.53 L 75.12 41.13 L 74.54 40.78 L 74.21 40.16 L 74.29 39.91 L 74.52 39.79 L 76.24 39.51 L 77.83 38.92 L 79.32 38.01 L 80.20 37.23 L 80.81 36.30 L 81.16 35.18 L 80.91 33.89 L 80.07 32.89 L 79.93 32.63 L 80.04 32.36 L 81.22 31.08 L 81.63 30.13 L 81.54 29.36 L 80.86 28.46 L 80.19 27.60 L 80.01 27.10 L 80.04 26.53 L 80.24 26.31 L 81.20 25.75 L 81.98 24.99 L 82.55 24.06 L 82.88 23.00 L 82.95 21.90 L 82.74 20.83 L 82.29 19.84 L 81.59 18.98 L 81.49 18.67 L 81.70 18.42 L 82.92 17.74 L 83.84 16.76 L 84.43 15.55 L 84.63 14.17 L 84.39 12.80 L 83.77 11.60 L 82.82 10.64 L 81.59 10.00 L 81.38 9.80 L 81.38 9.51 L 81.72 8.74 L 81.84 7.92 L 81.75 7.11 L 81.43 6.32 L 80.93 5.65 L 80.28 5.14 L 79.52 4.82 L 78.69 4.70 L 78.69 4.70 L 78.39 4.51 L 78.42 4.15 L 78.63 3.70 L 78.64 3.20 L 78.38 2.51 L 77.88 1.98 L 76.58 1.52 L 75.19 1.57 L 74.23 1.73 L 72.45 1.95 L 70.70 1.56 L 69.33 0.98 L 67.93 0.72 L 66.45 0.78 L 64.04 1.62 L 61.87 2.96 L 60.87 3.82 L 59.92 5.11 L 59.69 5.86 L 59.76 6.65 L 59.90 7.04 L 60.12 7.88 L 59.89 8.72 L 59.33 9.11 L 58.66 9.25 L 58.53 9.25 L 57.46 9.57 L 56.54 10.15 L 55.81 10.95 L 55.31 11.95 L 55.10 13.04 L 55.20 14.12 L 55.57 15.14 L 56.23 16.04 L 56.29 16.40 L 55.98 16.60 L 54.65 16.87 L 53.50 17.45 L 52.49 18.36 L 51.77 19.51 L 51.39 20.75 L 51.36 22.11 L 52.11 24.20 L 52.27 24.51 L 53.00 26.21 L 53.18 28.04 L 53.04 28.27 L 52.78 28.32 L 52.06 28.36 L 51.44 28.72 L 50.84 29.52 L 50.64 30.49 L 50.88 31.41 L 51.33 32.23 L 51.96 32.91 L 52.75 33.44 L 52.92 33.79 L 52.64 34.06 L 51.85 34.48 L 51.28 35.12 L 50.98 35.93 L 50.98 36.82 L 51.46 38.02 L 52.18 39.02 L 53.18 39.84 L 55.31 40.97 L 57.60 41.55 L 59.96 41.57 L 62.30 41.02 L 62.42 41.02 Z M 66.36 0.44 Z" fill="#231f20" fill-rule="nonzero" group-id="14" id="路径_9025" node-id="15" stroke="none" target-height="44.89" target-width="35.320004" target-x="49.98" target-y="0.05"></path></g><g node-id="92"><path d="M 84.65 42.73 L 86.09 44.57 L 89.72 49.19 L 94.48 55.20 L 99.34 61.21 L 103.25 65.87 L 104.73 67.45 L 105.17 67.77 L 107.30 67.46 L 112.44 66.63 L 118.69 65.47 L 124.13 64.17 L 126.16 63.42 L 126.88 62.88 L 127.57 62.03 L 128.14 61.61 L 129.16 61.36 L 129.57 61.43 L 129.95 60.79 L 130.97 59.56 L 131.65 59.03 L 132.40 58.74 L 133.07 58.77 L 134.03 59.08 L 134.99 59.57 L 135.88 60.22 L 136.57 61.00 L 136.89 61.78 L 136.79 62.54 L 136.03 63.35 L 132.92 65.35 L 127.29 68.87 L 120.37 73.09 L 113.40 77.17 L 107.62 80.31 L 105.35 81.34 L 104.27 81.66 L 102.15 81.53 L 100.03 80.82 L 97.86 79.45 L 95.89 77.72 L 93.97 75.61 L 92.09 73.09 L 89.61 69.08 L 87.52 64.96 L 85.79 60.85 L 84.67 57.49 L 84.02 54.46 L 84.08 53.08 Z" fill="#ffffff" fill-rule="nonzero" group-id="15" id="路径_9026" node-id="16" stroke="none" target-height="38.930004" target-width="52.870003" target-x="84.02" target-y="42.73"></path></g><g node-id="93"><path d="M 103.63 82.00 L 101.83 81.77 L 99.95 81.08 L 97.94 79.87 L 95.78 78.01 L 93.42 75.37 L 91.27 72.38 L 89.28 69.07 L 87.51 65.64 L 86.06 62.36 L 84.86 59.14 L 84.10 56.55 L 83.70 54.21 L 83.78 52.99 L 84.33 42.71 L 84.56 42.41 L 84.93 42.52 L 91.06 50.35 L 97.38 58.26 L 102.54 64.52 L 104.51 66.75 L 105.23 67.42 L 111.76 66.41 L 118.54 65.16 L 124.01 63.86 L 125.97 63.16 L 126.61 62.71 L 127.49 61.66 L 128.22 61.21 L 128.97 61.03 L 129.44 61.05 L 130.51 59.57 L 131.38 58.81 L 132.38 58.36 L 133.09 58.37 L 134.04 58.64 L 135.00 59.10 L 135.91 59.73 L 136.67 60.48 L 137.14 61.24 L 137.29 61.92 L 137.17 62.58 L 136.82 63.16 L 136.26 63.58 L 133.39 65.42 L 127.82 68.90 L 120.85 73.16 L 113.75 77.33 L 107.82 80.55 L 105.48 81.61 L 104.35 81.94 L 103.63 82.00 Z M 84.95 43.64 L 84.45 53.06 L 84.45 53.14 L 84.38 54.17 L 84.76 56.36 L 85.48 58.81 L 86.63 61.94 L 88.03 65.15 L 89.78 68.57 L 91.76 71.88 L 93.95 74.94 L 95.28 76.50 L 96.83 78.06 L 98.54 79.43 L 100.36 80.50 L 102.29 81.16 L 104.29 81.28 L 105.58 80.87 L 108.48 79.48 L 115.78 75.41 L 124.13 70.40 L 131.52 65.83 L 135.92 63.02 L 136.45 62.53 L 136.64 62.04 L 136.54 61.49 L 135.78 60.52 L 134.82 59.77 L 133.72 59.27 L 132.51 59.03 L 131.68 59.42 L 130.89 60.14 L 129.91 61.57 L 129.72 61.73 L 129.48 61.73 L 128.73 61.74 L 128.08 62.05 L 127.18 63.07 L 126.47 63.62 L 124.58 64.37 L 119.48 65.65 L 113.48 66.80 L 108.19 67.66 L 105.23 68.11 L 105.14 68.11 L 104.66 67.78 L 103.19 66.25 L 99.30 61.69 L 94.36 55.60 L 89.28 49.19 L 84.94 43.64 Z M 84.12 53.06 Z" fill="#231f20" fill-rule="nonzero" group-id="16" id="路径_9027" node-id="17" stroke="none" target-height="39.59" target-width="53.589996" target-x="83.7" target-y="42.41"></path></g><g node-id="94"><path d="M 70.30 36.01 L 68.77 35.60 L 67.12 35.38 L 64.59 35.39 L 61.85 35.80 L 58.41 36.89 L 56.16 37.96 L 53.65 39.51 L 50.87 41.65 L 48.71 43.78 L 47.15 45.85 L 45.91 48.05 L 44.91 50.26 L 43.06 54.80 L 44.44 65.05 L 46.31 76.18 L 48.22 86.37 L 49.70 93.81 L 50.30 96.69 L 86.91 96.69 L 87.22 94.27 L 88.02 88.00 L 89.06 79.37 L 90.11 69.88 L 90.95 61.02 L 90.93 56.95 L 90.36 53.41 L 89.35 50.11 L 88.18 47.38 L 85.82 43.12 L 84.81 41.80 L 83.54 40.62 L 81.97 39.59 L 79.41 38.34 L 76.79 37.41 L 72.25 36.32 L 70.30 36.01 Z" fill="#ff595e" fill-rule="nonzero" group-id="17" id="路径_9028" node-id="18" stroke="none" target-height="61.31" target-width="47.889996" target-x="43.06" target-y="35.38"></path></g><g node-id="95"><path d="M 64.60 37.99 L 65.71 40.70 L 67.96 46.47 L 70.76 53.73 L 73.51 60.87 L 75.59 66.33 L 76.42 68.50 L 76.42 41.17 Z" fill="#231f20" fill-rule="nonzero" group-id="18" id="路径_9029" node-id="19" stroke="none" target-height="30.509998" target-width="11.82" target-x="64.6" target-y="37.99"></path></g><g node-id="96"><path d="M 76.43 68.83 L 76.11 68.62 L 75.25 66.35 L 73.15 60.87 L 70.41 53.74 L 67.63 46.54 L 65.40 40.82 L 64.30 38.15 L 64.34 37.78 L 64.69 37.67 L 76.52 40.84 L 76.77 41.17 L 76.77 68.50 L 76.49 68.83 Z M 65.19 38.50 L 66.72 42.35 L 69.07 48.41 L 71.75 55.36 L 74.26 61.89 L 76.09 66.67 L 76.09 41.42 Z" fill="#231f20" fill-rule="nonzero" group-id="19" id="路径_9030" node-id="20" stroke="none" target-height="31.160004" target-width="12.469994" target-x="64.3" target-y="37.67"></path></g><g node-id="97"><path d="M 80.81 13.66 L 81.36 15.52 L 81.97 16.48 L 82.62 17.32 L 82.84 18.82 L 82.86 20.34 L 82.87 23.40 L 82.43 26.44 L 81.68 28.31 L 80.47 29.84 L 78.88 30.98 L 76.97 31.62 L 76.71 39.92 L 76.50 41.00 L 76.05 41.91 L 75.11 42.83 L 74.31 43.23 L 73.13 43.43 L 71.44 43.35 L 69.24 42.70 L 67.32 41.55 L 65.76 39.95 L 64.61 37.97 L 64.54 27.20 L 64.37 24.98 L 64.35 23.74 L 64.54 22.80 L 65.09 22.08 L 66.04 21.38 L 67.86 20.01 L 68.86 18.52 L 69.50 16.92 L 69.78 15.15 L 71.19 15.01 L 72.47 14.51 L 73.57 13.67 L 74.42 12.54 L 75.32 13.37 L 76.31 13.90 L 77.42 14.17 L 78.57 14.16 L 79.66 13.86 L 80.72 13.25 Z" fill="#ffffff" fill-rule="nonzero" group-id="20" id="路径_9031" node-id="21" stroke="none" target-height="30.89" target-width="18.520004" target-x="64.35" target-y="12.54"></path></g><g node-id="98"><path d="M 72.67 43.80 L 71.33 43.69 L 69.04 43.03 L 67.05 41.83 L 65.42 40.18 L 64.24 38.11 L 64.24 38.00 L 64.17 27.19 L 64.08 25.94 L 63.95 24.30 L 64.16 22.67 L 64.98 21.65 L 66.06 20.91 L 67.53 19.77 L 68.50 18.35 L 69.11 16.82 L 69.38 15.12 L 69.49 14.88 L 69.73 14.80 L 71.05 14.67 L 72.24 14.20 L 73.26 13.42 L 74.05 12.36 L 74.33 12.19 L 74.62 12.32 L 75.90 13.37 L 77.40 13.83 L 78.96 13.72 L 80.44 12.99 L 80.76 12.93 L 80.98 13.16 L 81.11 13.58 L 81.11 13.58 L 81.66 15.44 L 82.26 16.34 L 82.94 17.20 L 83.18 18.38 L 83.19 19.58 L 83.19 20.34 L 83.21 23.46 L 82.76 26.54 L 82.00 28.44 L 80.79 30.01 L 79.21 31.20 L 77.30 31.93 L 77.05 39.95 L 76.63 41.55 L 75.63 42.87 L 74.24 43.60 L 72.67 43.80 Z M 64.94 37.93 L 66.05 39.80 L 67.56 41.31 L 69.39 42.40 L 71.48 43.02 L 72.79 43.15 L 74.01 42.93 L 75.19 42.35 L 76.02 41.25 L 76.37 39.93 L 76.63 31.60 L 76.93 31.27 L 78.74 30.66 L 80.25 29.59 L 81.40 28.14 L 82.10 26.37 L 82.53 23.38 L 82.52 20.36 L 82.52 19.57 L 82.51 18.51 L 82.32 17.47 L 81.80 16.80 L 81.35 16.26 L 81.04 15.63 L 80.49 13.79 L 78.95 14.42 L 77.35 14.50 L 75.80 14.07 L 74.44 13.12 L 73.57 14.09 L 72.53 14.81 L 71.35 15.28 L 70.06 15.45 L 69.72 17.17 L 69.05 18.73 L 68.04 20.16 L 66.45 21.51 L 65.46 22.20 L 64.81 22.95 L 64.65 24.42 L 64.77 25.90 L 64.87 27.25 Z" fill="#231f20" fill-rule="nonzero" group-id="21" id="路径_9032" node-id="22" stroke="none" target-height="31.61" target-width="19.259998" target-x="63.95" target-y="12.19"></path></g><g node-id="99"><path d="M 67.41 22.93 L 66.99 22.07 L 65.84 20.45 L 65.04 19.79 L 64.13 19.49 L 63.20 19.67 L 62.03 20.63 L 61.26 21.89 L 60.97 23.06 L 61.07 24.18 L 61.77 25.75 L 62.92 27.01 L 64.36 27.83 L 65.68 28.03" fill="#ffffff" fill-rule="nonzero" group-id="22" id="路径_9033" node-id="23" stroke="none" target-height="8.540001" target-width="6.4400024" target-x="60.97" target-y="19.49"></path></g><g node-id="100"><path d="M 65.44 28.37 L 64.11 28.06 L 62.93 27.45 L 61.94 26.56 L 61.18 25.43 L 60.71 24.15 L 60.66 22.82 L 61.01 21.55 L 61.77 20.41 L 62.49 19.69 L 63.33 19.29 L 64.33 19.18 L 65.27 19.54 L 66.10 20.23 L 67.26 21.87 L 67.70 22.80 L 67.68 23.16 L 67.35 23.29 L 67.08 23.05 L 66.70 22.28 L 65.69 20.79 L 64.98 20.16 L 64.21 19.84 L 63.10 20.09 L 62.26 20.84 L 61.62 21.82 L 61.31 22.90 L 61.36 24.03 L 61.76 25.12 L 62.53 26.19 L 63.50 27.03 L 64.61 27.57 L 65.63 27.69 L 65.88 27.76 L 66.00 27.99 L 65.93 28.24 L 65.70 28.36 L 65.44 28.37 Z" fill="#231f20" fill-rule="nonzero" group-id="23" id="路径_9034" node-id="24" stroke="none" target-height="9.190001" target-width="7.039997" target-x="60.66" target-y="19.18"></path></g><g node-id="101"><path d="M 78.26 26.57 L 76.50 26.31 L 76.29 26.14 L 76.27 25.88 L 76.44 25.67 L 76.70 25.64 L 77.90 25.86 L 79.11 25.73 L 79.06 25.33 L 78.56 24.19 L 76.86 21.45 L 76.81 21.20 L 76.94 20.98 L 77.19 20.93 L 77.41 21.06 L 78.34 22.48 L 79.39 24.38 L 79.71 25.31 L 79.74 25.91 L 79.40 26.33 L 78.25 26.58 Z" fill="#231f20" fill-rule="nonzero" group-id="24" id="路径_9035" node-id="25" stroke="none" target-height="5.6499996" target-width="3.4700012" target-x="76.27" target-y="20.93"></path></g><g node-id="102"><path d="M 76.20 29.09 L 74.77 28.90 L 73.41 28.34 L 72.28 27.50 L 71.33 26.39 L 71.33 26.13 L 71.51 25.94 L 71.76 25.95 L 71.95 26.13 L 72.82 27.09 L 73.85 27.80 L 75.06 28.28 L 76.42 28.39 L 77.74 28.19 L 78.98 27.70 L 80.10 26.93 L 80.34 26.88 L 80.55 27.01 L 80.62 27.25 L 80.51 27.47 L 79.19 28.33 L 77.76 28.87 L 76.20 29.10 Z" fill="#231f20" fill-rule="nonzero" group-id="25" id="路径_9036" node-id="26" stroke="none" target-height="3.1599998" target-width="9.290001" target-x="71.33" target-y="25.94"></path></g><g node-id="103"><path d="M 76.97 31.64 L 75.72 31.72 L 72.92 31.73 L 71.36 31.60 L 70.00 31.32 L 70.46 32.36 L 71.81 34.65 L 72.78 35.88 L 73.94 36.96 L 75.28 37.74 L 76.78 38.05 Z" fill="#231f20" fill-rule="nonzero" group-id="26" id="路径_9037" node-id="27" stroke="none" target-height="6.7299995" target-width="6.970001" target-x="70" target-y="31.32"></path></g><g node-id="104"><path d="M 76.78 38.39 L 76.78 38.39 L 75.22 38.07 L 73.83 37.30 L 72.63 36.21 L 71.63 34.98 L 70.22 32.63 L 69.69 31.44 L 69.75 31.10 L 70.09 31.00 L 71.41 31.26 L 72.94 31.39 L 75.69 31.38 L 76.95 31.30 L 77.20 31.39 L 77.31 31.65 L 77.12 38.06 L 77.02 38.29 L 76.78 38.39 Z M 70.57 31.80 L 71.75 33.94 L 72.64 35.19 L 73.74 36.35 L 75.03 37.24 L 76.45 37.68 L 76.62 32.00 L 73.59 32.08 L 70.57 31.80 Z" fill="#231f20" fill-rule="nonzero" group-id="27" id="路径_9038" node-id="28" stroke="none" target-height="7.3899994" target-width="7.619995" target-x="69.69" target-y="31"></path></g><g node-id="105"><path d="M 74.83 20.63 L 74.66 21.45 L 74.20 21.79 L 73.73 21.47 L 73.52 20.66 L 73.70 19.85 L 74.15 19.50 L 74.62 19.83 L 74.83 20.63 Z" fill="#231f20" fill-rule="nonzero" group-id="28" id="椭圆_102" node-id="29" stroke="none" target-height="2.290001" target-width="1.3100052" target-x="73.52" target-y="19.5"></path></g><g node-id="106"><path d="M 80.83 20.51 L 80.66 21.33 L 80.20 21.67 L 79.73 21.35 L 79.53 20.54 L 79.70 19.73 L 80.16 19.38 L 80.62 19.71 L 80.83 20.51 Z" fill="#231f20" fill-rule="nonzero" group-id="29" id="椭圆_103" node-id="30" stroke="none" target-height="2.290001" target-width="1.300003" target-x="79.53" target-y="19.38"></path></g><g node-id="107"><path d="M 72.67 22.91 L 70.89 22.83 L 70.52 22.67 L 70.35 22.01 L 70.21 18.73 L 70.30 18.50 L 70.53 18.39 L 73.95 18.18 L 77.37 18.15 L 77.61 18.49 L 77.34 22.48 L 77.23 22.70 L 77.01 22.79 L 72.67 22.91 Z M 71.03 22.18 L 73.17 22.22 L 76.65 22.13 L 76.88 18.76 L 74.28 18.85 L 70.85 19.00 L 71.03 22.18 Z" fill="#231f20" fill-rule="nonzero" group-id="30" id="路径_9039" node-id="31" stroke="none" target-height="4.76" target-width="7.4000015" target-x="70.21" target-y="18.15"></path></g><g node-id="108"><path d="M 85.02 22.79 L 78.81 22.79 L 78.57 22.70 L 78.47 22.46 L 78.44 18.46 L 78.54 18.23 L 78.77 18.13 L 83.30 18.10 L 85.05 18.11 L 85.39 18.13 L 85.62 18.47 L 85.35 22.46 L 85.25 22.70 L 85.02 22.79 Z M 79.15 22.12 L 84.71 22.12 L 84.93 18.76 L 79.11 18.76 Z" fill="#231f20" fill-rule="nonzero" group-id="31" id="路径_9040" node-id="32" stroke="none" target-height="4.6900005" target-width="7.1800003" target-x="78.44" target-y="18.1"></path></g><g node-id="109"><path d="M 78.78 20.51 L 77.24 20.51 L 77.01 20.41 L 76.92 20.18 L 77.01 19.95 L 77.24 19.84 L 78.78 19.84 L 79.00 19.95 L 79.10 20.18 L 79.00 20.41 L 78.78 20.51 Z" fill="#231f20" fill-rule="nonzero" group-id="32" id="路径_9041" node-id="33" stroke="none" target-height="0.6700001" target-width="2.1800003" target-x="76.92" target-y="19.84"></path></g><g node-id="110"><path d="M 58.57 61.01 L 58.39 62.94 L 57.98 67.73 L 57.57 73.81 L 57.38 79.65 L 57.44 82.15 L 57.62 83.70 L 88.33 88.02 L 89.61 87.99 L 92.73 88.03 L 96.56 88.33 L 98.45 88.64 L 99.98 89.06 L 101.21 89.65 L 102.68 90.62 L 104.06 91.77 L 105.11 92.88 L 105.79 94.00 L 105.76 94.65 L 105.00 95.49 L 103.82 96.29 L 102.46 96.74 L 101.05 96.67 L 98.36 95.86 L 95.35 94.91 L 93.91 94.46 L 94.51 95.03 L 95.65 96.28 L 96.14 96.98 L 96.33 97.48 L 96.22 97.82 L 95.55 97.92 L 92.86 97.18 L 90.36 95.94 L 87.52 96.43 L 80.47 97.49 L 71.36 98.44 L 66.64 98.67 L 62.39 98.63 L 57.91 98.28 L 54.28 97.73 L 51.37 97.03 L 48.59 95.99 L 46.41 94.72 L 44.73 93.26 L 43.39 91.48 L 42.37 89.35 L 41.68 86.80 L 41.33 84.21 L 41.11 80.73 L 41.14 73.04 L 41.58 65.18 L 42.29 58.62 L 42.74 56.07 L 43.10 54.80" fill="#ffffff" fill-rule="nonzero" group-id="33" id="路径_9042" node-id="34" stroke="none" target-height="43.87" target-width="64.68" target-x="41.11" target-y="54.8"></path></g><g node-id="111"><path d="M 65.05 99.03 L 62.36 98.97 L 57.78 98.60 L 54.08 98.04 L 51.13 97.31 L 48.32 96.24 L 46.11 94.94 L 44.42 93.45 L 43.07 91.63 L 42.04 89.46 L 41.34 86.85 L 40.99 84.21 L 40.77 80.69 L 40.80 72.94 L 41.26 65.04 L 41.98 58.46 L 42.43 55.90 L 42.78 54.65 L 43.05 54.44 L 43.36 54.57 L 43.40 54.91 L 43.06 56.14 L 42.62 58.67 L 41.92 65.19 L 41.47 73.01 L 41.45 80.67 L 41.65 84.14 L 42.00 86.72 L 42.67 89.20 L 43.66 91.27 L 44.97 93.00 L 46.61 94.42 L 48.75 95.66 L 51.48 96.69 L 54.35 97.38 L 57.94 97.92 L 62.40 98.27 L 66.60 98.32 L 71.27 98.09 L 80.32 97.16 L 87.38 96.10 L 90.30 95.58 L 90.54 95.63 L 92.97 96.83 L 95.58 97.55 L 96.01 97.55 L 95.91 97.24 L 95.36 96.46 L 93.69 94.71 L 93.62 94.29 L 94.02 94.14 L 95.47 94.60 L 98.47 95.54 L 101.13 96.34 L 102.42 96.39 L 103.68 95.97 L 104.79 95.23 L 105.50 94.44 L 105.50 94.06 L 105.12 93.36 L 104.29 92.39 L 102.13 90.57 L 100.92 89.82 L 99.90 89.35 L 98.40 88.93 L 96.56 88.62 L 92.79 88.34 L 89.69 88.30 L 88.37 88.33 L 57.61 84.01 L 57.33 83.74 L 57.15 82.21 L 57.08 79.75 L 57.25 74.03 L 57.65 68.03 L 58.06 63.18 L 58.27 60.95 L 58.40 60.72 L 58.64 60.65 L 58.87 60.77 L 58.95 61.02 L 58.77 62.96 L 58.37 67.62 L 57.97 73.53 L 57.75 79.27 L 57.79 81.76 L 57.95 83.38 L 88.41 87.66 L 89.81 87.64 L 92.94 87.68 L 96.73 87.98 L 98.59 88.29 L 100.13 88.72 L 101.19 89.21 L 102.47 90.01 L 104.79 91.96 L 105.69 93.02 L 106.14 93.85 L 106.22 94.34 L 106.07 94.81 L 105.24 95.73 L 103.96 96.59 L 102.50 97.06 L 100.97 96.99 L 98.24 96.17 L 95.19 95.21 L 96.33 96.64 L 96.65 97.34 L 96.62 97.84 L 96.28 98.17 L 95.52 98.24 L 92.82 97.52 L 90.31 96.29 L 87.17 96.84 L 80.95 97.77 L 73.10 98.65 L 68.97 98.93 L 65.05 99.03 Z" fill="#231f20" fill-rule="nonzero" group-id="34" id="路径_9043" node-id="35" stroke="none" target-height="44.59" target-width="65.45" target-x="40.77" target-y="54.44"></path></g><g node-id="112"><path d="M 58.58 61.34 L 58.54 61.34 L 58.32 61.21 L 58.27 60.95 L 60.67 47.60 L 60.81 47.39 L 61.06 47.33 L 61.28 47.47 L 61.34 47.72 L 58.94 61.08 L 58.81 61.28 L 58.58 61.34 Z" fill="#231f20" fill-rule="nonzero" group-id="35" id="路径_9044" node-id="36" stroke="none" target-height="14.009998" target-width="3.0699997" target-x="58.27" target-y="47.33"></path></g><g node-id="113"><path d="M 107.34 108.83 L 107.34 60.32 L 110.52 60.12 L 118.84 59.26 L 124.19 58.49 L 130.45 57.35 L 136.85 55.89 L 143.50 53.99 L 150.02 51.64 L 156.15 48.79 L 160.03 46.55 L 163.49 44.08 L 166.56 41.37 L 166.56 91.50 L 163.20 93.76 L 159.29 95.93 L 152.66 98.97 L 147.82 100.83 L 141.75 102.77 L 134.26 104.77 L 126.72 106.37 L 117.80 107.74 L 107.34 108.83 Z" fill="#ff595e" fill-rule="nonzero" group-id="36" id="路径_9045" node-id="37" stroke="none" target-height="67.46001" target-width="59.22" target-x="107.34" target-y="41.37"></path></g><g node-id="114"><path d="M 107.34 109.16 L 107.11 109.08 L 107.00 108.83 L 107.00 60.32 L 107.09 60.08 L 107.32 59.98 L 110.65 59.77 L 119.01 58.88 L 124.36 58.10 L 130.58 56.95 L 136.95 55.49 L 143.54 53.60 L 149.99 51.26 L 156.05 48.45 L 159.88 46.24 L 163.29 43.80 L 166.31 41.14 L 166.68 41.06 L 166.88 41.38 L 166.88 91.50 L 166.76 91.76 L 163.24 94.09 L 159.26 96.29 L 152.56 99.33 L 147.69 101.20 L 141.61 103.14 L 134.13 105.14 L 126.61 106.73 L 117.74 108.10 L 107.36 109.19 Z M 107.67 60.64 L 107.67 108.46 L 117.48 107.43 L 125.92 106.15 L 133.14 104.66 L 140.32 102.80 L 146.23 100.98 L 151.04 99.20 L 157.70 96.30 L 161.90 94.09 L 165.24 92.03 L 166.22 91.31 L 166.22 42.18 L 163.28 44.68 L 160.00 46.97 L 156.35 49.06 L 150.59 51.74 L 144.47 54.00 L 138.23 55.84 L 132.13 57.30 L 126.14 58.47 L 120.87 59.30 L 112.20 60.31 L 107.67 60.64 Z" fill="#231f20" fill-rule="nonzero" group-id="37" id="路径_9046" node-id="38" stroke="none" target-height="68.130005" target-width="59.880005" target-x="107" target-y="41.06"></path></g><g node-id="115"><path d="M 20.71 126.78 L 20.71 93.52 L 22.87 94.78 L 25.26 96.00 L 29.04 97.68 L 33.30 99.27 L 38.78 100.90 L 44.68 102.20 L 51.63 103.14 L 56.40 103.44 L 61.56 103.43 L 67.15 103.08 L 67.15 135.53 L 63.86 136.17 L 60.25 136.51 L 54.51 136.51 L 50.47 136.19 L 45.62 135.44 L 39.87 134.17 L 34.26 132.51 L 27.90 130.08 L 20.71 126.78 Z" fill="#ffffff" fill-rule="nonzero" group-id="38" id="路径_9047" node-id="39" stroke="none" target-height="42.989998" target-width="46.440002" target-x="20.71" target-y="93.52"></path></g><g node-id="116"><path d="M 57.44 136.87 L 53.18 136.72 L 47.79 136.12 L 42.10 135.04 L 35.37 133.19 L 30.86 131.64 L 25.94 129.62 L 20.55 127.08 L 20.37 126.78 L 20.37 93.52 L 20.55 93.22 L 20.89 93.22 L 23.14 94.52 L 25.57 95.74 L 29.36 97.40 L 33.62 98.97 L 39.07 100.58 L 44.93 101.86 L 51.81 102.78 L 56.52 103.08 L 61.61 103.07 L 67.11 102.72 L 67.36 102.80 L 67.47 103.05 L 67.47 135.50 L 67.23 135.83 L 64.00 136.46 L 60.74 136.81 L 57.44 136.87 Z M 21.04 126.58 L 27.65 129.61 L 33.55 131.90 L 38.82 133.52 L 44.22 134.80 L 48.86 135.61 L 52.81 136.02 L 58.49 136.20 L 62.36 135.97 L 65.61 135.52 L 66.81 135.25 L 66.81 103.43 L 60.56 103.77 L 54.85 103.69 L 49.62 103.23 L 44.41 102.43 L 39.82 101.47 L 35.81 100.36 L 30.13 98.42 L 26.05 96.70 L 21.04 94.11 Z" fill="#231f20" fill-rule="nonzero" group-id="39" id="路径_9048" node-id="40" stroke="none" target-height="43.649994" target-width="47.1" target-x="20.37" target-y="93.22"></path></g><g node-id="117"><path d="M 117.09 99.88 L 116.87 99.79 L 116.76 99.54 L 116.76 64.99 L 116.84 64.77 L 117.06 64.66 L 119.61 64.38 L 123.13 63.97 L 126.27 63.60 L 127.66 63.44 L 127.92 63.52 L 128.03 63.77 L 128.03 97.66 L 127.83 97.97 L 126.06 98.56 L 123.73 99.06 L 119.33 99.68 L 117.11 99.88 Z M 117.43 65.29 L 117.43 99.18 L 120.07 98.91 L 123.91 98.34 L 125.86 97.91 L 127.37 97.44 L 127.37 64.15 L 124.56 64.48 L 120.62 64.94 L 117.41 65.29 Z" fill="#231f20" fill-rule="nonzero" group-id="40" id="路径_9049" node-id="41" stroke="none" target-height="36.44" target-width="11.269997" target-x="116.76" target-y="63.44"></path></g><g node-id="118"><path d="M 134.25 96.35 L 134.03 96.27 L 133.91 96.01 L 133.91 69.19 L 134.19 68.86 L 139.54 67.62 L 144.73 65.85 L 145.04 65.85 L 145.19 66.14 L 145.19 92.38 L 145.01 92.68 L 141.55 94.25 L 137.99 95.47 L 134.30 96.35 Z M 134.58 69.47 L 134.58 95.61 L 138.00 94.76 L 141.31 93.62 L 144.52 92.18 L 144.52 66.67 L 139.62 68.30 L 134.59 69.48 Z" fill="#231f20" fill-rule="nonzero" group-id="41" id="路径_9050" node-id="42" stroke="none" target-height="30.5" target-width="11.279999" target-x="133.91" target-y="65.85"></path></g><g node-id="119"><path d="M 150.92 90.33 L 150.71 90.26 L 150.59 89.99 L 150.59 70.94 L 150.84 70.62 L 154.14 69.59 L 157.27 68.23 L 160.26 66.52 L 160.61 66.52 L 160.80 66.82 L 160.80 86.08 L 160.64 86.36 L 157.55 88.00 L 154.34 89.32 L 151.00 90.34 Z M 151.26 71.20 L 151.26 89.56 L 154.33 88.59 L 157.28 87.37 L 160.12 85.88 L 160.12 67.42 L 157.29 68.97 L 154.34 70.23 L 151.26 71.20 Z" fill="#231f20" fill-rule="nonzero" group-id="42" id="路径_9051" node-id="43" stroke="none" target-height="23.82" target-width="10.210007" target-x="150.59" target-y="66.52"></path></g><g node-id="120"><path d="M 147.59 58.61 L 147.35 58.54 L 147.22 58.32 L 147.29 58.07 L 147.51 57.94 L 152.25 56.34 L 156.73 54.22 L 160.97 51.59 L 161.22 51.52 L 161.45 51.65 L 161.51 51.90 L 161.38 52.12 L 157.05 54.81 L 152.49 56.96 L 147.67 58.59 Z" fill="#ffffff" fill-rule="nonzero" group-id="43" id="路径_9052" node-id="44" stroke="none" target-height="7.09" target-width="14.289993" target-x="147.22" target-y="51.52"></path></g><g node-id="121"><path d="M 153.39 60.37 L 153.13 60.32 L 152.98 60.10 L 153.04 59.84 L 153.25 59.70 L 154.43 59.17 L 157.84 57.56 L 160.97 55.46 L 161.41 55.53 L 161.41 55.97 L 158.20 58.13 L 154.70 59.79 L 153.53 60.31 L 153.39 60.37 Z" fill="#ffffff" fill-rule="nonzero" group-id="44" id="路径_9053" node-id="45" stroke="none" target-height="4.91" target-width="8.430008" target-x="152.98" target-y="55.46"></path></g><g node-id="122"><path d="M 11.01 83.24 L 10.82 83.18 L 7.58 80.64 L 4.64 77.80 L 2.01 74.63 L 1.95 74.38 L 2.08 74.17 L 2.33 74.11 L 2.55 74.24 L 5.14 77.34 L 8.01 80.13 L 11.19 82.62 L 11.34 82.84 L 11.29 83.09 L 11.01 83.24 Z" fill="#d1d3d4" fill-rule="nonzero" group-id="45" id="路径_9054" node-id="46" stroke="none" target-height="9.129997" target-width="9.39" target-x="1.95" target-y="74.11"></path></g><g node-id="123"><path d="M 11.01 89.42 L 10.82 89.37 L 7.58 86.83 L 4.64 83.98 L 2.01 80.81 L 1.95 80.57 L 2.08 80.35 L 2.33 80.29 L 2.55 80.42 L 5.14 83.53 L 8.01 86.32 L 11.19 88.81 L 11.34 89.03 L 11.29 89.28 L 11.01 89.42 Z" fill="#d1d3d4" fill-rule="nonzero" group-id="46" id="路径_9055" node-id="47" stroke="none" target-height="9.129997" target-width="9.39" target-x="1.95" target-y="80.29"></path></g><g node-id="124"><path d="M 11.01 95.61 L 10.82 95.55 L 7.58 93.01 L 4.64 90.17 L 2.01 87.00 L 1.95 86.75 L 2.08 86.54 L 2.33 86.48 L 2.55 86.61 L 5.13 89.71 L 8.00 92.50 L 11.18 94.99 L 11.32 95.21 L 11.27 95.46 L 11.01 95.61 Z" fill="#d1d3d4" fill-rule="nonzero" group-id="47" id="路径_9056" node-id="48" stroke="none" target-height="9.129997" target-width="9.37" target-x="1.95" target-y="86.48"></path></g><g node-id="125"><path d="M 135.32 52.98 L 135.06 52.87 L 132.18 49.86 L 128.82 46.86 L 125.31 44.05 L 121.98 41.59 L 116.45 37.83 L 114.11 36.36 L 113.95 36.07 L 113.95 14.11 L 114.05 13.87 L 114.29 13.77 L 114.52 13.87 L 114.62 14.11 L 114.62 35.88 L 117.62 37.78 L 123.17 41.61 L 126.37 44.02 L 129.68 46.71 L 132.84 49.57 L 135.57 52.43 L 135.67 52.66 L 135.57 52.90 L 135.32 52.98 Z" fill="#231f20" fill-rule="nonzero" group-id="48" id="路径_9057" node-id="49" stroke="none" target-height="39.21" target-width="21.720001" target-x="113.95" target-y="13.77"></path></g><g node-id="126"><path d="M 127.90 38.62 L 127.23 38.45 L 126.51 37.78 L 125.97 36.55 L 125.34 33.35 L 124.96 31.09 L 124.22 28.93 L 123.98 28.63 L 123.62 28.51 L 122.64 28.81 L 121.24 29.86 L 118.51 32.82 L 116.46 35.53 L 116.02 35.58 L 115.91 35.15 L 116.97 33.69 L 118.99 31.21 L 121.38 28.88 L 122.61 28.09 L 123.59 27.84 L 123.65 27.84 L 124.33 28.05 L 124.81 28.58 L 125.60 30.86 L 126.01 33.25 L 126.56 36.13 L 127.00 37.29 L 127.53 37.84 L 128.15 37.91 L 128.72 37.68 L 130.76 36.30 L 132.51 34.56 L 134.49 32.60 L 136.79 31.02 L 137.04 30.99 L 137.25 31.15 L 137.27 31.40 L 137.11 31.61 L 134.91 33.13 L 133.00 35.02 L 131.17 36.83 L 129.04 38.28 L 127.90 38.61 Z" fill="#231f20" fill-rule="nonzero" group-id="49" id="路径_9058" node-id="50" stroke="none" target-height="10.779999" target-width="21.36" target-x="115.91" target-y="27.84"></path></g><g node-id="127"><path d="M 41.65 45.60 L 41.42 45.50 L 41.32 45.26 L 41.32 26.26 L 41.55 25.94 L 43.49 25.42 L 45.46 25.05 L 45.72 25.14 L 45.83 25.39 L 45.83 44.01 L 45.73 44.24 L 45.50 44.34 L 45.26 44.25 L 45.16 44.01 L 45.16 25.77 L 41.99 26.51 L 41.99 45.26 L 41.89 45.50 L 41.65 45.60 Z" fill="#231f20" fill-rule="nonzero" group-id="50" id="路径_9059" node-id="51" stroke="none" target-height="20.55" target-width="4.510002" target-x="41.32" target-y="25.05"></path></g><g node-id="128"><path d="M 57.58 130.54 L 57.58 130.54 L 57.28 130.32 L 49.88 109.67 L 41.72 125.55 L 41.45 125.73 L 41.15 125.60 L 33.08 115.04 L 27.98 123.14 L 27.77 123.29 L 27.52 123.25 L 23.18 120.63 L 23.02 120.43 L 23.06 120.18 L 23.27 120.02 L 23.53 120.06 L 27.57 122.50 L 32.71 114.25 L 32.98 114.09 L 33.27 114.22 L 41.34 124.75 L 49.62 108.65 L 49.94 108.47 L 50.23 108.69 L 57.63 129.30 L 61.19 121.76 L 61.47 121.55 L 61.79 121.70 L 61.80 122.05 L 57.87 130.35 L 57.58 130.54 Z" fill="#d1d3d4" fill-rule="nonzero" group-id="51" id="路径_9060" node-id="52" stroke="none" target-height="22.069992" target-width="38.78" target-x="23.02" target-y="108.47"></path></g><g node-id="129"><path d="M 28.72 122.97 L 28.42 123.70 L 27.69 124.00 L 26.96 123.70 L 26.66 122.97 L 26.96 122.24 L 27.69 121.94 L 28.42 122.24 L 28.72 122.97 Z" fill="#ffffff" fill-rule="nonzero" group-id="52" id="椭圆_104" node-id="53" stroke="none" target-height="2.0599976" target-width="2.0599995" target-x="26.66" target-y="121.94"></path></g><g node-id="130"><path d="M 27.69 124.33 L 27.16 124.23 L 26.74 123.94 L 26.45 123.51 L 26.34 122.99 L 26.45 122.46 L 26.74 122.04 L 27.16 121.75 L 27.69 121.64 L 28.22 121.75 L 28.64 122.04 L 28.93 122.46 L 29.03 122.99 L 28.93 123.51 L 28.64 123.94 L 28.22 124.23 L 27.69 124.33 Z M 27.69 122.27 L 27.21 122.47 L 27.02 122.95 L 27.21 123.42 L 27.69 123.62 L 28.16 123.42 L 28.36 122.95 L 28.16 122.47 L 27.69 122.27 Z" fill="#d1d3d4" fill-rule="nonzero" group-id="53" id="路径_9061" node-id="54" stroke="none" target-height="2.6900024" target-width="2.6900005" target-x="26.34" target-y="121.64"></path></g><g node-id="131"><path d="M 34.04 114.45 L 33.74 115.17 L 33.01 115.48 L 32.28 115.17 L 31.98 114.45 L 32.28 113.72 L 33.01 113.42 L 33.74 113.72 L 34.04 114.45 Z" fill="#ffffff" fill-rule="nonzero" group-id="54" id="椭圆_105" node-id="55" stroke="none" target-height="2.0600052" target-width="2.0600014" target-x="31.98" target-y="113.42"></path></g><g node-id="132"><path d="M 33.01 115.81 L 32.48 115.70 L 32.06 115.42 L 31.77 114.99 L 31.67 114.47 L 31.77 113.94 L 32.06 113.51 L 32.48 113.23 L 33.01 113.12 L 33.54 113.23 L 33.96 113.51 L 34.25 113.94 L 34.36 114.47 L 34.25 114.99 L 33.96 115.42 L 33.54 115.70 L 33.01 115.81 Z M 33.01 113.75 L 32.54 113.95 L 32.34 114.43 L 32.54 114.90 L 33.01 115.10 L 33.49 114.90 L 33.68 114.43 L 33.49 113.95 L 33.01 113.75 Z" fill="#d1d3d4" fill-rule="nonzero" group-id="55" id="路径_9062" node-id="56" stroke="none" target-height="2.6899948" target-width="2.6900005" target-x="31.67" target-y="113.12"></path></g><g node-id="133"><path d="M 50.94 108.83 L 50.63 109.56 L 49.91 109.86 L 49.18 109.56 L 48.88 108.83 L 49.18 108.10 L 49.91 107.80 L 50.63 108.10 L 50.94 108.83 Z" fill="#ffffff" fill-rule="nonzero" group-id="56" id="椭圆_106" node-id="57" stroke="none" target-height="2.0599976" target-width="2.0599976" target-x="48.88" target-y="107.8"></path></g><g node-id="134"><path d="M 49.91 110.19 L 49.38 110.09 L 48.95 109.80 L 48.67 109.37 L 48.56 108.85 L 48.67 108.32 L 48.95 107.90 L 49.38 107.61 L 49.91 107.50 L 50.43 107.61 L 50.86 107.90 L 51.14 108.32 L 51.25 108.85 L 51.14 109.37 L 50.86 109.80 L 50.43 110.09 L 49.91 110.19 Z M 49.91 108.13 L 49.43 108.33 L 49.23 108.81 L 49.43 109.28 L 49.91 109.48 L 50.38 109.28 L 50.58 108.81 L 50.38 108.33 L 49.91 108.13 Z" fill="#d1d3d4" fill-rule="nonzero" group-id="57" id="路径_9063" node-id="58" stroke="none" target-height="2.6900024" target-width="2.6899986" target-x="48.56" target-y="107.5"></path></g><g node-id="135"><path d="M 58.61 130.20 L 58.31 130.93 L 57.58 131.23 L 56.85 130.93 L 56.55 130.20 L 56.85 129.47 L 57.58 129.17 L 58.31 129.47 L 58.61 130.20 Z" fill="#ffffff" fill-rule="nonzero" group-id="58" id="椭圆_107" node-id="59" stroke="none" target-height="2.0599976" target-width="2.0600014" target-x="56.55" target-y="129.17"></path></g><g node-id="136"><path d="M 57.58 131.57 L 57.05 131.46 L 56.63 131.17 L 56.34 130.75 L 56.23 130.22 L 56.34 129.69 L 56.63 129.27 L 57.05 128.98 L 57.58 128.88 L 58.11 128.98 L 58.53 129.27 L 58.82 129.69 L 58.92 130.22 L 58.82 130.75 L 58.53 131.17 L 58.11 131.46 L 57.58 131.57 Z M 57.58 129.51 L 57.09 129.71 L 56.89 130.20 L 57.09 130.69 L 57.58 130.89 L 58.07 130.69 L 58.27 130.20 L 58.07 129.71 L 57.58 129.51 Z" fill="#d1d3d4" fill-rule="nonzero" group-id="59" id="路径_9064" node-id="60" stroke="none" target-height="2.6900024" target-width="2.6899986" target-x="56.23" target-y="128.88"></path></g><g node-id="137"><path d="M 42.41 125.40 L 42.11 126.13 L 41.38 126.43 L 40.66 126.13 L 40.35 125.40 L 40.66 124.67 L 41.38 124.37 L 42.11 124.67 L 42.41 125.40 Z" fill="#ffffff" fill-rule="nonzero" group-id="60" id="椭圆_108" node-id="61" stroke="none" target-height="2.0599976" target-width="2.0600014" target-x="40.35" target-y="124.37"></path></g><g node-id="138"><path d="M 41.38 126.76 L 40.86 126.66 L 40.43 126.37 L 40.15 125.94 L 40.04 125.42 L 40.15 124.89 L 40.43 124.47 L 40.86 124.18 L 41.38 124.07 L 41.91 124.18 L 42.34 124.47 L 42.62 124.89 L 42.73 125.42 L 42.62 125.94 L 42.34 126.37 L 41.91 126.66 L 41.38 126.76 Z M 41.38 124.70 L 40.91 124.90 L 40.71 125.38 L 40.91 125.85 L 41.38 126.05 L 41.86 125.85 L 42.06 125.38 L 41.86 124.90 L 41.38 124.70 Z" fill="#d1d3d4" fill-rule="nonzero" group-id="61" id="路径_9065" node-id="62" stroke="none" target-height="2.6900024" target-width="2.6899986" target-x="40.04" target-y="124.07"></path></g><g node-id="139"><path d="M 112.19 114.70 L 106.94 116.97 L 101.90 118.65 L 96.92 119.90 L 92.66 120.71 L 86.00 121.49 L 83.44 121.61 L 83.44 143.63 L 88.42 143.58 L 93.33 143.13 L 98.20 142.28 L 102.98 141.03 L 107.64 139.40 L 112.19 137.38 Z" fill="#ffffff" fill-rule="nonzero" group-id="62" id="路径_9066" node-id="63" stroke="none" target-height="28.930008" target-width="28.75" target-x="83.44" target-y="114.7"></path></g><g node-id="140"><path d="M 85.21 144.00 L 83.44 144.00 L 83.20 143.90 L 83.11 143.67 L 83.11 121.61 L 83.21 121.38 L 83.44 121.28 L 86.07 121.14 L 92.73 120.34 L 96.96 119.54 L 101.89 118.29 L 106.88 116.63 L 112.04 114.39 L 112.37 114.39 L 112.53 114.68 L 112.53 137.36 L 112.35 137.66 L 108.05 139.59 L 103.66 141.17 L 99.15 142.41 L 94.56 143.29 L 89.92 143.83 L 85.21 144.00 Z M 83.78 143.33 L 88.64 143.26 L 93.43 142.81 L 98.18 141.97 L 102.85 140.75 L 107.40 139.17 L 111.85 137.21 L 111.85 115.23 L 107.13 117.26 L 102.55 118.80 L 98.02 119.99 L 94.02 120.81 L 87.38 121.71 L 83.78 121.96 Z" fill="#231f20" fill-rule="nonzero" group-id="63" id="路径_9067" node-id="64" stroke="none" target-height="29.61" target-width="29.419998" target-x="83.11" target-y="114.39"></path></g><g node-id="141"><path d="M 90.17 130.89 L 90.40 133.06 L 91.18 135.05 L 92.45 136.76 L 94.16 138.12 L 96.17 138.96 L 98.29 139.24 L 100.40 138.96 L 102.41 138.12 L 104.13 136.76 L 105.40 135.05 L 106.17 133.06 L 106.40 130.89 L 98.25 130.89 L 98.25 122.78 L 96.09 123.08 L 94.17 123.90 L 92.54 125.17 L 91.28 126.81 L 90.47 128.72 L 90.17 130.89 Z" fill="#ff595e" fill-rule="nonzero" group-id="64" id="路径_9068" node-id="65" stroke="none" target-height="16.460007" target-width="16.230003" target-x="90.17" target-y="122.78"></path></g><g node-id="142"><path d="M 99.59 121.58 L 99.59 129.70 L 107.67 129.70 L 107.38 127.53 L 106.57 125.61 L 105.31 123.97 L 103.67 122.70 L 101.76 121.88 L 99.59 121.58 Z" fill="#e6e7e8" fill-rule="nonzero" group-id="65" id="路径_9069" node-id="66" stroke="none" target-height="8.119995" target-width="8.080002" target-x="99.59" target-y="121.58"></path></g><g node-id="143"><path d="M 125.84 115.37 L 125.51 115.10 L 125.57 114.84 L 125.78 114.70 L 128.49 114.16 L 134.95 112.59 L 138.89 111.46 L 143.08 110.08 L 147.17 108.47 L 150.76 106.71 L 151.11 106.70 L 151.28 107.01 L 151.08 107.30 L 147.45 109.07 L 143.33 110.70 L 139.10 112.09 L 135.14 113.23 L 128.63 114.81 L 125.90 115.37 Z" fill="#d1d3d4" fill-rule="nonzero" group-id="66" id="路径_9070" node-id="67" stroke="none" target-height="8.670006" target-width="25.769997" target-x="125.51" target-y="106.7"></path></g><g node-id="144"><path d="M 125.84 121.34 L 125.53 121.20 L 125.50 120.86 L 125.78 120.66 L 128.49 120.11 L 134.95 118.54 L 138.89 117.42 L 143.08 116.03 L 147.17 114.43 L 150.76 112.66 L 151.12 112.64 L 151.29 112.96 L 151.08 113.25 L 147.45 115.03 L 143.33 116.65 L 139.10 118.05 L 135.14 119.18 L 128.63 120.77 L 125.90 121.33 Z" fill="#d1d3d4" fill-rule="nonzero" group-id="67" id="路径_9071" node-id="68" stroke="none" target-height="8.699997" target-width="25.789993" target-x="125.5" target-y="112.64"></path></g><g node-id="145"><path d="M 125.84 127.30 L 125.53 127.16 L 125.50 126.82 L 125.78 126.63 L 128.49 126.09 L 134.95 124.51 L 138.89 123.39 L 143.08 122.00 L 147.17 120.39 L 150.76 118.63 L 151.01 118.60 L 151.22 118.76 L 151.24 119.01 L 151.08 119.21 L 147.45 120.99 L 143.33 122.62 L 139.10 124.01 L 135.14 125.15 L 128.63 126.73 L 125.90 127.29 Z" fill="#d1d3d4" fill-rule="nonzero" group-id="68" id="路径_9072" node-id="69" stroke="none" target-height="8.700005" target-width="25.740005" target-x="125.5" target-y="118.6"></path></g><g node-id="146"><path d="M 125.84 133.26 L 125.53 133.13 L 125.50 132.78 L 125.78 132.59 L 132.63 131.07 L 139.40 129.19 L 139.65 129.22 L 139.82 129.41 L 139.80 129.67 L 139.60 129.83 L 132.79 131.71 L 125.90 133.23 Z" fill="#d1d3d4" fill-rule="nonzero" group-id="69" id="路径_9073" node-id="70" stroke="none" target-height="4.069992" target-width="14.320007" target-x="125.5" target-y="129.19"></path></g><g node-id="147"><path d="M 23.35 64.10 L 23.06 63.94 L 23.02 63.69 L 23.18 63.48 L 25.03 62.53 L 27.28 61.61 L 31.89 60.13 L 35.71 59.13 L 37.47 58.73 L 37.72 58.78 L 37.87 58.99 L 37.82 59.24 L 37.61 59.39 L 36.00 59.75 L 32.20 60.73 L 27.59 62.21 L 25.34 63.12 L 23.52 64.06 L 23.35 64.10 Z" fill="#d1d3d4" fill-rule="nonzero" group-id="70" id="路径_9074" node-id="71" stroke="none" target-height="5.369999" target-width="14.849998" target-x="23.02" target-y="58.73"></path></g><g node-id="148"><path d="M 23.35 67.48 L 23.03 67.23 L 23.18 66.86 L 25.03 65.91 L 27.28 64.99 L 31.89 63.51 L 35.71 62.52 L 37.47 62.15 L 37.80 62.25 L 37.87 62.59 L 37.61 62.82 L 35.99 63.17 L 32.20 64.16 L 27.59 65.64 L 25.34 66.55 L 23.52 67.49 L 23.35 67.48 Z" fill="#d1d3d4" fill-rule="nonzero" group-id="71" id="路径_9075" node-id="72" stroke="none" target-height="5.3399963" target-width="14.839998" target-x="23.03" target-y="62.15"></path></g><g node-id="149"><path d="M 23.35 70.86 L 23.06 70.69 L 23.02 70.44 L 23.18 70.23 L 25.03 69.28 L 27.28 68.36 L 31.89 66.88 L 35.71 65.90 L 37.47 65.52 L 37.72 65.57 L 37.87 65.78 L 37.82 66.03 L 37.61 66.18 L 36.00 66.54 L 32.20 67.52 L 27.59 69.00 L 25.34 69.92 L 23.52 70.85 L 23.35 70.86 Z" fill="#d1d3d4" fill-rule="nonzero" group-id="72" id="路径_9076" node-id="73" stroke="none" target-height="5.340004" target-width="14.849998" target-x="23.02" target-y="65.52"></path></g><path d="M 23.35 74.23 L 23.03 73.98 L 23.18 73.61 L 27.30 71.72 L 31.62 70.33 L 31.88 70.36 L 32.05 70.57 L 32.02 70.84 L 31.81 71.00 L 27.58 72.36 L 23.54 74.19 L 23.35 74.23 Z" fill="#d1d3d4" fill-rule="nonzero" group-id="73" id="路径_9077" node-id="74" stroke="none" target-height="3.9000015" target-width="9.019999" target-x="23.03" target-y="70.33"></path></svg>